<svg width="24" height="23" viewBox="0 0 24 23" fill="none" xmlns="http://www.w3.org/2000/svg">
<g clip-path="url(#clip0)">
<path d="M22.2163 0H1.38365C1.06934 0 0.814453 0.254773 0.814453 0.569198V14.643C0.814453 14.9574 1.06934 15.2122 1.38365 15.2122H4.38742C4.46335 15.4371 4.67384 15.6001 4.9244 15.6001H5.57056L7.60384 22.1984C7.67921 22.4429 7.90438 22.6 8.14766 22.6C8.2031 22.6 8.25956 22.5919 8.31546 22.5746C8.61588 22.4821 8.78436 22.1635 8.69181 21.863L8.2994 20.5896H9.67151L9.84523 22.0958C9.8787 22.386 10.1248 22.5998 10.41 22.5998C10.4317 22.5998 10.4538 22.5985 10.4759 22.596C10.7882 22.56 11.0121 22.2777 10.9762 21.9653L10.8175 20.5896H12.7827L12.6241 21.9653C12.5881 22.2777 12.812 22.56 13.1244 22.596C13.1465 22.5985 13.1686 22.5998 13.1903 22.5998C13.4755 22.5998 13.7216 22.3859 13.7551 22.0958L13.9288 20.5896H15.3009L14.9085 21.863C14.8159 22.1635 14.9844 22.4821 15.2848 22.5746C15.3407 22.5918 15.3972 22.6 15.4526 22.6C15.6959 22.6 15.9211 22.4429 15.9964 22.1984L18.0297 15.6001H18.6759C18.9264 15.6001 19.1369 15.4371 19.2129 15.2122H22.2166C22.5309 15.2122 22.7858 14.9574 22.7858 14.643V0.569198C22.7855 0.254773 22.5306 0 22.2163 0ZM6.6378 5.90509C6.6378 5.59066 6.89269 5.33589 7.207 5.33589H16.3929C16.7073 5.33589 16.9621 5.59066 16.9621 5.90509V12.8327H15.8237V6.47428H7.7762V12.8327H6.6378V5.90509ZM5.4936 13.9711H18.1063V14.4618H5.4936V13.9711ZM13.2019 16.9529H10.3979L10.242 15.6001H13.3579L13.2019 16.9529ZM9.09594 15.6001L9.2519 16.9529H7.17854L6.76166 15.6001H9.09594ZM7.52939 18.0913H9.38327L9.54014 19.4513H7.94844L7.52939 18.0913ZM10.5292 18.0913H13.0705L12.9137 19.4513H10.6861L10.5292 18.0913ZM14.2167 18.0913H16.0705L15.6514 19.4513H14.0598L14.2167 18.0913ZM16.4213 16.9529H14.3479L14.5039 15.6001H16.8382L16.4213 16.9529Z" fill="#131417"/>
</g>
<defs>
<clipPath id="clip0">
<rect width="22.6" height="22.6" fill="white" transform="translate(0.5)"/>
</clipPath>
</defs>
</svg>
