<svg width="30" height="30" viewBox="0 0 30 30" fill="none" xmlns="http://www.w3.org/2000/svg">
<path d="M15.3 4C9.05925 4 4 9.05925 4 15.3C4 21.5407 9.05925 26.6 15.3 26.6C21.5407 26.6 26.6 21.5407 26.6 15.3C26.593 9.06219 21.5378 4.00699 15.3 4ZM15.7033 7.25776L19.6317 5.68746C20.0775 5.88922 20.5088 6.12169 20.9224 6.38323L20.9327 6.38966C21.3392 6.64715 21.7276 6.93204 22.0954 7.24231L22.1271 7.2699C22.2921 7.41041 22.4524 7.5559 22.6084 7.70597C22.6281 7.72528 22.6487 7.74368 22.6684 7.76336C22.8319 7.923 22.9902 8.08761 23.1434 8.257C23.1561 8.27134 23.1683 8.28642 23.1809 8.30077C23.3154 8.4514 23.4447 8.60736 23.5701 8.7659C23.6003 8.8036 23.6304 8.84131 23.6597 8.87901C23.7958 9.0552 23.9275 9.23453 24.0518 9.41955L23.2687 12.7485L19.4157 14.033L15.7043 11.0632L15.7033 7.25776ZM6.93995 8.88122C6.96919 8.84351 6.99899 8.80581 7.02915 8.76829C7.15311 8.61104 7.2813 8.45765 7.41373 8.30794C7.42807 8.29212 7.44131 8.27594 7.45548 8.26012C7.60776 8.09036 7.76538 7.92594 7.9287 7.76667C7.94746 7.74827 7.96622 7.72896 7.9859 7.71204C8.14057 7.56288 8.29966 7.41832 8.46317 7.27854L8.50087 7.24691C8.8654 6.93885 9.25016 6.65579 9.65258 6.39941L9.66729 6.39003C10.0785 6.12905 10.5071 5.89694 10.9503 5.695L14.8967 7.25776V11.0621L11.185 14.0313L7.33207 12.7492L6.54894 9.42028C6.67437 9.23563 6.80458 9.05668 6.93995 8.88122ZM6.48604 21.08C6.37532 20.9112 6.26938 20.7392 6.16841 20.564L6.14395 20.5217C6.04353 20.3473 5.94844 20.17 5.85887 19.9899L5.85575 19.9842C5.66704 19.6054 5.50133 19.2155 5.35972 18.8165V18.8129C5.29277 18.6245 5.23171 18.4316 5.17524 18.2376L5.15483 18.166C5.10315 17.9838 5.05625 17.7995 5.01431 17.6132C5.01064 17.5949 5.00604 17.5777 5.00236 17.5596C4.90985 17.1388 4.84345 16.7129 4.80336 16.2838L7.1029 13.5244L10.9292 14.7997L12.0397 19.2414L10.215 21.6691L6.48604 21.08ZM17.8083 25.5426C17.62 25.5894 17.4267 25.6296 17.2334 25.6659C17.2063 25.6712 17.1787 25.6756 17.1517 25.6806C16.9871 25.71 16.8206 25.7352 16.6538 25.7558C16.6093 25.7615 16.5652 25.7676 16.5209 25.7729C16.366 25.7909 16.2097 25.8045 16.053 25.8158C16.0037 25.8191 15.9549 25.824 15.9056 25.8272C15.7054 25.8395 15.5034 25.8467 15.3 25.8467C15.1137 25.8467 14.9285 25.8417 14.7444 25.832C14.7221 25.832 14.7008 25.8283 14.6785 25.8266C14.5147 25.8172 14.3515 25.8049 14.1888 25.7891L14.17 25.7856C13.8134 25.747 13.4588 25.6903 13.1079 25.6162L10.8799 22.1278L12.6758 19.733H17.9242L19.7496 22.1436L17.8083 25.5426ZM25.6004 17.56C25.5965 17.578 25.5921 17.5955 25.5883 17.6135C25.5461 17.7996 25.4992 17.9839 25.4477 18.1664L25.4275 18.2379C25.3709 18.432 25.31 18.6242 25.2429 18.8132V18.8169C25.1012 19.2158 24.9357 19.6057 24.7468 19.9846L24.7437 19.9903C24.6536 20.1705 24.5587 20.3478 24.4586 20.522L24.4342 20.5643C24.3337 20.7401 24.228 20.9117 24.1171 21.0797L20.4008 21.6656L18.5635 19.2399L19.6734 14.7994L23.4997 13.5241L25.7992 16.2834C25.7593 16.7127 25.6929 17.139 25.6004 17.56Z" fill="#131417"/>
</svg>
