<svg width="20" height="20" viewBox="0 0 20 20" fill="none" xmlns="http://www.w3.org/2000/svg">
<path d="M9.16663 9.14947C9.16663 8.68924 9.53972 8.31614 9.99996 8.31614C10.4602 8.31614 10.8333 8.68924 10.8333 9.14947V14.1495C10.8333 14.6097 10.4602 14.9828 9.99996 14.9828C9.53972 14.9828 9.16663 14.6097 9.16663 14.1495V9.14947Z" fill="#386CFC"/>
<path d="M9.99996 5.04262C9.53972 5.04262 9.16663 5.41572 9.16663 5.87596C9.16663 6.33619 9.53972 6.70929 9.99996 6.70929C10.4602 6.70929 10.8333 6.33619 10.8333 5.87596C10.8333 5.41572 10.4602 5.04262 9.99996 5.04262Z" fill="#386CFC"/>
<path fill-rule="evenodd" clip-rule="evenodd" d="M9.99996 1.66667C5.39759 1.66667 1.66663 5.39763 1.66663 10C1.66663 14.6024 5.39759 18.3333 9.99996 18.3333C14.6023 18.3333 18.3333 14.6024 18.3333 10C18.3333 5.39763 14.6023 1.66667 9.99996 1.66667ZM3.33329 10C3.33329 13.6819 6.31806 16.6667 9.99996 16.6667C13.6819 16.6667 16.6666 13.6819 16.6666 10C16.6666 6.3181 13.6819 3.33333 9.99996 3.33333C6.31806 3.33333 3.33329 6.3181 3.33329 10Z" fill="#386CFC"/>
</svg>
