<svg width="30" height="29" viewBox="0 0 30 29" fill="none" xmlns="http://www.w3.org/2000/svg">
<g clip-path="url(#clip0)">
<path d="M15.0454 2.59476C18.8954 2.59476 19.3513 2.61165 20.8654 2.67919C22.2725 2.7411 23.0324 2.9775 23.5389 3.1745C24.2087 3.43342 24.6928 3.74862 25.1937 4.24956C25.7003 4.75613 26.0099 5.23455 26.2688 5.90435C26.4658 6.41092 26.7022 7.1764 26.7641 8.57791C26.8316 10.0976 26.8485 10.5535 26.8485 14.3978C26.8485 18.2478 26.8316 18.7037 26.7641 20.2178C26.7022 21.6249 26.4658 22.3848 26.2688 22.8913C26.0099 23.5611 25.6947 24.0452 25.1937 24.5461C24.6872 25.0527 24.2087 25.3623 23.5389 25.6212C23.0324 25.8182 22.2669 26.0546 20.8654 26.1165C19.3457 26.184 18.8897 26.2009 15.0454 26.2009C11.1955 26.2009 10.7396 26.184 9.22552 26.1165C7.81838 26.0546 7.05853 25.8182 6.55196 25.6212C5.88216 25.3623 5.39811 25.0471 4.89717 24.5461C4.3906 24.0395 4.08103 23.5611 3.82211 22.8913C3.62511 22.3848 3.38871 21.6193 3.3268 20.2178C3.25926 18.698 3.24237 18.2421 3.24237 14.3978C3.24237 10.5479 3.25926 10.092 3.3268 8.57791C3.38871 7.17077 3.62511 6.41092 3.82211 5.90435C4.08103 5.23455 4.39622 4.7505 4.89717 4.24956C5.40374 3.74299 5.88216 3.43342 6.55196 3.1745C7.05853 2.9775 7.82401 2.7411 9.22552 2.67919C10.7396 2.61165 11.1955 2.59476 15.0454 2.59476ZM15.0454 0C11.1336 0 10.6439 0.0168857 9.10732 0.0844283C7.57636 0.151971 6.52382 0.399627 5.61199 0.754226C4.66077 1.12571 3.85588 1.61539 3.05663 2.42028C2.25175 3.21953 1.76206 4.02441 1.39058 4.97001C1.03598 5.88747 0.788323 6.93437 0.720781 8.46534C0.653238 10.0076 0.636353 10.4972 0.636353 14.4091C0.636353 18.3209 0.653238 18.8106 0.720781 20.3472C0.788323 21.8782 1.03598 22.9307 1.39058 23.8425C1.76206 24.7938 2.25175 25.5987 3.05663 26.3979C3.85588 27.1972 4.66077 27.6925 5.60636 28.0583C6.52382 28.4129 7.57073 28.6606 9.10169 28.7281C10.6383 28.7957 11.128 28.8126 15.0398 28.8126C18.9517 28.8126 19.4413 28.7957 20.9779 28.7281C22.5089 28.6606 23.5614 28.4129 24.4733 28.0583C25.4189 27.6925 26.2237 27.1972 27.023 26.3979C27.8223 25.5987 28.3176 24.7938 28.6834 23.8482C29.038 22.9307 29.2857 21.8838 29.3532 20.3528C29.4208 18.8162 29.4377 18.3266 29.4377 14.4147C29.4377 10.5029 29.4208 10.0132 29.3532 8.4766C29.2857 6.94563 29.038 5.89309 28.6834 4.98127C28.3288 4.02441 27.8391 3.21953 27.0343 2.42028C26.235 1.62102 25.4301 1.12571 24.4845 0.759854C23.5671 0.405256 22.5202 0.157599 20.9892 0.0900568C19.447 0.0168857 18.9573 0 15.0454 0Z" fill="white"/>
<path d="M15.0455 7.00757C10.9591 7.00757 7.64392 10.3228 7.64392 14.4091C7.64392 18.4954 10.9591 21.8107 15.0455 21.8107C19.1318 21.8107 22.447 18.4954 22.447 14.4091C22.447 10.3228 19.1318 7.00757 15.0455 7.00757ZM15.0455 19.2103C12.3944 19.2103 10.2443 17.0602 10.2443 14.4091C10.2443 11.7581 12.3944 9.60796 15.0455 9.60796C17.6965 9.60796 19.8466 11.7581 19.8466 14.4091C19.8466 17.0602 17.6965 19.2103 15.0455 19.2103Z" fill="white"/>
<path d="M24.4676 6.71478C24.4676 7.67164 23.6909 8.44275 22.7397 8.44275C21.7828 8.44275 21.0117 7.66601 21.0117 6.71478C21.0117 5.75793 21.7885 4.98682 22.7397 4.98682C23.6909 4.98682 24.4676 5.76356 24.4676 6.71478Z" fill="white"/>
</g>
<defs>
<clipPath id="clip0">
<rect width="28.8182" height="28.8182" fill="white" transform="translate(0.636353)"/>
</clipPath>
</defs>
</svg>
