<svg width="23" height="23" viewBox="0 0 23 23" fill="none" xmlns="http://www.w3.org/2000/svg">
<g clip-path="url(#clip0)">
<path d="M18.251 1.6834C17.3901 0.818468 12.5584 -1.26866 9.92785 1.07911C7.29725 3.42683 10.0921 5.08552 11.0967 5.48475C12.1011 5.88397 14.9709 6.49387 16.0115 4.92874C16.2891 5.54117 16.1018 10.6355 14.4615 11.9307C13.6303 11.2483 12.4306 10.8198 11.0967 10.8198C10.0015 10.8198 8.99704 11.1087 8.21248 11.5898C7.17676 10.1583 5.21725 9.19167 2.96847 9.19167C1.89026 9.19167 0.878961 9.41485 0.00311509 9.80396V10.3045C0.00239194 10.3043 0 10.3038 0 10.3038V22.5987C0 22.5987 4.16128 22.7841 4.49415 18.6446C4.49404 18.6444 4.49388 18.6441 4.49388 18.6439C5.50617 19.9098 8.73153 20.8733 10.719 20.8165C13.8409 20.7274 17.9891 20.6095 21.5031 17.7085C21.8279 17.4303 22.0883 17.1016 22.2653 16.7381C22.2653 16.738 22.2653 16.738 22.2653 16.7379C23.891 13.8255 19.1119 2.54834 18.251 1.6834Z" fill="black"/>
</g>
<defs>
<clipPath id="clip0">
<rect width="22.6" height="22.6" fill="white"/>
</clipPath>
</defs>
</svg>
