<svg width="27" height="36" viewBox="0 0 27 36" fill="none" xmlns="http://www.w3.org/2000/svg">
<path fill-rule="evenodd" clip-rule="evenodd" d="M16.3636 3.27273V3.74707C21.0952 5.15525 24.5455 9.53833 24.5455 14.7273V26.1818H26.1818V29.4545H0V26.1818H1.63636V14.7273C1.63636 9.53833 5.08665 5.15525 9.81818 3.74707V3.27273C9.81818 1.46525 11.2834 0 13.0909 0C14.8984 0 16.3636 1.46525 16.3636 3.27273ZM4.90909 26.1818H21.2727V14.7273C21.2727 10.2086 17.6096 6.54545 13.0909 6.54545C8.57222 6.54545 4.90909 10.2086 4.90909 14.7273V26.1818ZM16.3636 32.7273V31.0909H9.81818V32.7273C9.81818 34.5347 11.2834 36 13.0909 36C14.8984 36 16.3636 34.5348 16.3636 32.7273Z" fill="#FC9D44"/>
</svg>
