<svg width="30" height="29" viewBox="0 0 30 29" fill="none" xmlns="http://www.w3.org/2000/svg">
<g clip-path="url(#clip0)">
<path d="M14.6818 0C6.72303 0 0.272705 6.45032 0.272705 14.4091C0.272705 20.5161 4.07198 25.7281 9.43036 27.8276C9.30653 26.685 9.18833 24.9401 9.48102 23.6962C9.74556 22.5705 11.1696 16.5367 11.1696 16.5367C11.1696 16.5367 10.7362 15.6755 10.7362 14.3978C10.7362 12.3941 11.8957 10.8969 13.3422 10.8969C14.5692 10.8969 15.1659 11.82 15.1659 12.9288C15.1659 14.1671 14.3779 16.0132 13.9726 17.7243C13.6349 19.1596 14.6931 20.3303 16.1058 20.3303C18.6668 20.3303 20.6368 17.6286 20.6368 13.7337C20.6368 10.2834 18.1602 7.86872 14.6199 7.86872C10.5223 7.86872 8.11328 10.9419 8.11328 14.122C8.11328 15.3603 8.5917 16.6887 9.18833 17.4091C9.30653 17.5498 9.32341 17.6793 9.28964 17.82C9.1827 18.2759 8.93505 19.2553 8.89002 19.4523C8.8281 19.7168 8.68176 19.7731 8.40596 19.6436C6.60483 18.805 5.47912 16.1765 5.47912 14.0601C5.47912 9.51225 8.78308 5.3415 14.997 5.3415C19.9951 5.3415 23.8788 8.90437 23.8788 13.6661C23.8788 18.6305 20.7494 22.6268 16.4041 22.6268C14.9463 22.6268 13.573 21.8669 13.1002 20.972C13.1002 20.972 12.3797 23.7243 12.2052 24.3998C11.8788 25.6493 11.0007 27.2197 10.4154 28.1765C11.7662 28.593 13.1959 28.8182 14.6818 28.8182C22.6406 28.8182 29.0909 22.3679 29.0909 14.4091C29.0909 6.45032 22.6406 0 14.6818 0Z" fill="white"/>
</g>
<defs>
<clipPath id="clip0">
<rect width="28.8182" height="28.8182" fill="white" transform="translate(0.272705)"/>
</clipPath>
</defs>
</svg>
