<svg width="36" height="36" viewBox="0 0 36 36" fill="none" xmlns="http://www.w3.org/2000/svg">
<path fill-rule="evenodd" clip-rule="evenodd" d="M24.5455 13.0909C24.5455 16.7059 21.615 19.6364 18 19.6364C14.385 19.6364 11.4545 16.7059 11.4545 13.0909C11.4545 9.47595 14.385 6.54545 18 6.54545C21.615 6.54545 24.5455 9.47595 24.5455 13.0909ZM21.2727 13.0909C21.2727 14.8984 19.8075 16.3636 18 16.3636C16.1925 16.3636 14.7273 14.8984 14.7273 13.0909C14.7273 11.2834 16.1925 9.81818 18 9.81818C19.8075 9.81818 21.2727 11.2834 21.2727 13.0909Z" fill="#FC9D44"/>
<path fill-rule="evenodd" clip-rule="evenodd" d="M18 0C8.05888 0 0 8.05888 0 18C0 27.9411 8.05888 36 18 36C27.9411 36 36 27.9411 36 18C36 8.05888 27.9411 0 18 0ZM3.27273 18C3.27273 21.4203 4.43871 24.5684 6.39488 27.0682C9.08582 23.5455 13.3303 21.2727 18.1055 21.2727C22.8188 21.2727 27.015 23.4869 29.7106 26.9318C31.6031 24.4542 32.7273 21.3584 32.7273 18C32.7273 9.86635 26.1336 3.27273 18 3.27273C9.86635 3.27273 3.27273 9.86635 3.27273 18ZM18 32.7273C14.4814 32.7273 11.2511 31.4934 8.71801 29.4346C10.7894 26.4784 14.2217 24.5455 18.1055 24.5455C21.9411 24.5455 25.3364 26.4307 27.4153 29.325C24.8627 31.4495 21.5806 32.7273 18 32.7273Z" fill="#FC9D44"/>
</svg>
