<svg width="31" height="30" viewBox="0 0 31 30" fill="none" xmlns="http://www.w3.org/2000/svg">
<path d="M15.7651 7.82712C16.8226 7.82712 17.6791 6.97028 17.6791 5.91329C17.6791 4.85669 16.8226 4 15.7651 4C14.7093 4 13.8517 4.85669 13.8517 5.91329C13.8517 6.97028 14.7093 7.82712 15.7651 7.82712Z" fill="black"/>
<path d="M22.6006 13.891C22.6006 13.3456 22.1586 12.9036 21.6131 12.9036H18.2742L16.3911 10.23L16.3973 10.1845C16.4645 9.67385 16.3254 9.15735 16.0116 8.7489C15.6975 8.3404 15.2347 8.07349 14.7239 8.0063C14.1585 7.93263 13.6224 8.11474 13.2196 8.4561V6.23202C13.2196 5.84941 12.9094 5.53882 12.526 5.53882H10.6053C10.2217 5.53882 9.9117 5.84941 9.9117 6.23202V14.4699C9.9117 15.4783 10.6831 16.2972 11.666 16.3933L11.5176 16.7382L10.3543 21.1331L7.73448 24.6529C7.34412 25.1779 7.45197 25.92 7.97749 26.3107C8.1895 26.4689 8.43792 26.5453 8.68406 26.5453C9.04594 26.5453 9.40222 26.3802 9.63539 26.0677L12.3917 22.3647C12.4819 22.2436 12.5483 22.1063 12.5868 21.9606L13.38 18.9661L15.5507 20.9592L15.2545 25.2794C15.2098 25.9324 15.7019 26.4978 16.3555 26.5426C16.3824 26.5446 16.4103 26.5453 16.4379 26.5453C17.0552 26.5453 17.5759 26.0666 17.6183 25.4413L17.9538 20.5526C17.9786 20.1935 17.8382 19.8421 17.5728 19.5987L15.3302 17.5401L16.0124 13.122L16.9549 14.4597C17.1403 14.7223 17.4412 14.8786 17.762 14.8786H21.2181L21.2834 26.205C21.2834 26.4233 21.4602 26.5999 21.6784 26.5999C21.8968 26.5999 22.0734 26.4232 22.0734 26.205L22.0081 14.7937C22.356 14.6412 22.6006 14.2953 22.6006 13.891Z" fill="black"/>
</svg>
