<svg width="23" height="23" viewBox="0 0 23 23" fill="none" xmlns="http://www.w3.org/2000/svg">
<g clip-path="url(#clip0)">
<path d="M22.4276 12.058H21.6121C21.5505 11.4375 21.4456 10.8222 21.298 10.2165C20.7964 7.98028 19.6429 5.94299 17.9835 4.36212C16.3851 2.92182 14.575 2.35571 12.8999 2.76537C12.8633 2.77296 12.825 2.78365 12.77 2.80039L12.7652 2.80159L12.755 2.80487L12.7447 2.8078L12.7438 2.80832C11.1741 3.243 9.96515 4.46216 9.23948 6.13601V1.1305C9.23948 0.506088 8.7334 0 8.10898 0C7.48474 0 6.97865 0.506088 6.97865 1.1305V6.78268H2.45664V1.1305C2.45664 0.506088 1.95055 0 1.3263 0C0.701888 0 0.195801 0.506088 0.195801 1.1305V12.058C0.196836 12.1326 0.209255 12.2068 0.232369 12.2779C0.208738 12.3269 0.196318 12.3803 0.195801 12.4349C0.195801 12.6429 0.364497 12.8116 0.572693 12.8116H8.75047C8.78135 12.9592 8.81481 13.107 8.85069 13.2554C9.35729 15.5262 10.5409 17.5899 12.2451 19.1739L11.4729 20.1818C11.1219 20.6363 11.0598 21.2507 11.3128 21.7663C11.566 22.2818 12.0902 22.6085 12.6645 22.6087H19.7561C20.3303 22.6085 20.8543 22.282 21.1074 21.7666C21.3606 21.2514 21.2986 20.637 20.948 20.1824L19.9639 18.8988C21.1639 17.3833 21.7578 15.1897 21.6638 12.8116H22.4276C22.6358 12.8116 22.8045 12.6429 22.8045 12.4349C22.8045 12.2267 22.6358 12.058 22.4276 12.058ZM6.97848 12.058H2.45664V9.04351H6.97848V12.058ZM8.4857 9.51217C8.46379 9.9327 8.46379 10.3541 8.4857 10.7745V12.058H7.73209V9.04351C7.73157 8.62747 7.39435 8.29042 6.97848 8.2899H2.45664C2.04059 8.29042 1.70354 8.62747 1.70302 9.04351V12.058H0.949412V1.1305C0.949412 0.922308 1.11811 0.753612 1.3263 0.753612C1.53433 0.753612 1.70302 0.922308 1.70302 1.1305V6.78268C1.70354 7.19855 2.04059 7.53577 2.45664 7.53629H6.97848C7.39435 7.53577 7.73157 7.19855 7.73209 6.78268V1.1305C7.73209 0.922308 7.90078 0.753612 8.10881 0.753612C8.317 0.753612 8.4857 0.922308 8.4857 1.1305V9.51217ZM9.58291 13.0765C9.38593 12.2725 9.27088 11.4506 9.23931 10.6235V9.78954C9.32038 7.58062 10.0585 5.66356 11.2754 4.51425C10.5975 6.3223 10.602 9.31105 11.4129 12.6294C11.8434 14.4918 12.5442 16.2809 13.4934 17.9401C13.634 18.1769 13.7765 18.3973 13.9133 18.5897C14.0892 18.847 14.2793 19.0945 14.4823 19.331C14.1029 19.2886 13.7277 19.2129 13.3613 19.1049C13.2376 19.0183 13.115 18.9276 12.9732 18.8117L12.8732 18.7292C11.3471 17.4471 10.1478 15.3865 9.58291 13.0765ZM20.3508 20.642C20.5264 20.869 20.5576 21.1762 20.4314 21.4339C20.3049 21.6916 20.0431 21.8549 19.7561 21.8551H12.6645C12.3774 21.8549 12.1154 21.6912 11.9892 21.4333C11.8629 21.1755 11.8943 20.8683 12.0702 20.6413L12.7964 19.6934C12.8856 19.7362 12.9775 19.7731 13.0715 19.8042C13.8502 20.0289 14.6547 20.1519 15.4648 20.1702C15.7043 20.1819 15.9552 20.1857 16.2103 20.1857C16.8496 20.188 17.4883 20.149 18.1227 20.0693C18.4036 20.031 18.6247 19.992 18.816 19.9472L18.8322 19.9439C19.1044 19.8908 19.3695 19.8059 19.622 19.6915L20.3508 20.642ZM19.2943 18.5348C19.2641 18.5716 19.2343 18.6085 19.2027 18.644C19.0927 18.7684 18.9786 18.8836 18.862 18.9917C18.9133 18.8563 18.9621 18.7163 19.0062 18.5662C19.0537 18.4034 19.0975 18.225 19.1375 18.041C19.473 16.4616 19.4144 14.3019 18.99 12.0581H19.79C19.9981 12.0581 20.1668 11.8894 20.1668 11.6814C20.1668 11.4732 19.9981 11.3045 19.79 11.3045H17.9059C17.6979 11.3045 17.5292 11.4732 17.5292 11.6814C17.5292 11.8894 17.6979 12.0581 17.9059 12.0581H18.2233C18.6545 14.2567 18.7225 16.3666 18.4005 17.8831C18.3651 18.0472 18.3258 18.2079 18.2826 18.3544C18.1883 18.7011 18.0453 19.033 17.8583 19.3398C17.1183 19.4223 16.3734 19.4494 15.6296 19.4209C15.2104 19.0495 14.8413 18.6252 14.5315 18.1586C14.4026 17.9777 14.2714 17.7746 14.141 17.5549C13.2337 15.9585 12.5613 14.2393 12.1451 12.4509C10.9763 7.66928 11.6356 3.97384 12.997 3.51864C13.0188 3.51157 13.0407 3.5057 13.0629 3.50087C14.1993 3.22558 15.8065 5.05898 16.9912 7.91301H16.7754C16.5674 7.91301 16.3987 8.08171 16.3987 8.2899C16.3987 8.49793 16.5674 8.66662 16.7754 8.66662H18.6595C18.8677 8.66662 19.0364 8.49793 19.0364 8.2899C19.0364 8.08171 18.8677 7.91301 18.6595 7.91301H17.8028C17.0174 5.92868 16.067 4.42352 15.1012 3.55762C15.9889 3.82188 16.8029 4.28881 17.479 4.92168C19.0261 6.40113 20.1002 8.30577 20.5657 10.3952C21.3333 13.5464 20.8469 16.6643 19.2943 18.5348Z" fill="#131417"/>
<path d="M19.4132 10.1733H17.5292C17.321 10.1733 17.1523 10.342 17.1523 10.5502C17.1523 10.7583 17.321 10.927 17.5292 10.927H19.4132C19.6214 10.927 19.7901 10.7583 19.7901 10.5502C19.7901 10.342 19.6214 10.1733 19.4132 10.1733Z" fill="#131417"/>
<path d="M19.0366 9.79731C19.2447 9.79731 19.4134 9.62862 19.4134 9.42042C19.4134 9.2124 19.2447 9.0437 19.0366 9.0437H17.1525C16.9445 9.0437 16.7756 9.2124 16.7756 9.42042C16.7756 9.62862 16.9445 9.79731 17.1525 9.79731H19.0366Z" fill="#131417"/>
<path d="M13.1266 5.67148C13.0319 5.63957 12.9282 5.64681 12.8389 5.69149C12.7494 5.73634 12.6816 5.81482 12.6502 5.90969C12.2064 7.2408 12.3947 8.65936 12.6379 9.87128C12.6645 10.0032 12.7594 10.111 12.8868 10.1542C13.0145 10.1971 13.1552 10.169 13.2563 10.08C13.3574 9.99099 13.4034 9.85489 13.3769 9.72294C13.1531 8.60813 12.9769 7.31152 13.3648 6.14824C13.4305 5.95074 13.3241 5.73737 13.1266 5.67148Z" fill="#131417"/>
<path d="M13.7612 4.89813C13.7612 5.10616 13.5925 5.27485 13.3845 5.27485C13.1763 5.27485 13.0076 5.10616 13.0076 4.89813C13.0076 4.68994 13.1763 4.52124 13.3845 4.52124C13.5925 4.52124 13.7612 4.68994 13.7612 4.89813Z" fill="#131417"/>
</g>
<defs>
<clipPath id="clip0">
<rect width="22.6087" height="22.6087" fill="white" transform="translate(0.195801)"/>
</clipPath>
</defs>
</svg>
