<svg width="23" height="23" viewBox="0 0 23 23" fill="none" xmlns="http://www.w3.org/2000/svg">
<path d="M22.215 4.68752L22.1597 4.63019C21.6401 4.09182 20.7932 4.09063 20.2705 4.63179L18.2367 6.76105C18.1295 6.87242 17.9581 6.8769 17.8464 6.77033L14.9949 4.04295C14.718 3.77778 14.3576 3.63208 13.9802 3.63208H9.73843C9.6383 3.63208 9.5425 3.67163 9.47004 3.74267L5.87497 7.27922C5.3483 7.82527 5.31207 8.70548 5.79474 9.24143C6.05262 9.52799 6.40088 9.68576 6.77521 9.68576H6.78183C7.15308 9.68375 7.5099 9.5203 7.75648 9.24101L10.2955 6.45712H11.2043L5.27898 13.318H1.62433C0.757971 13.318 0.0455298 13.9892 0.00228475 14.846C-0.0207058 15.2935 0.130431 15.7189 0.427675 16.0434C0.720594 16.3634 1.13235 16.5466 1.55814 16.5466H7.01169C7.11919 16.5466 7.22205 16.5006 7.29605 16.4187L10.0902 13.3285L12.4399 15.8743L11.7306 20.5711C11.5518 21.3492 11.9121 22.1418 12.5872 22.4546C12.7952 22.5514 13.0161 22.5998 13.2358 22.5998C13.4722 22.5998 13.7075 22.5438 13.9241 22.4328C14.3424 22.2181 14.6432 21.8254 14.7526 21.337L15.9645 14.6025C15.9879 14.4718 15.9477 14.337 15.8566 14.243L12.6223 10.8965L15.1917 8.23856L16.9828 10.0938C17.483 10.612 18.3547 10.612 18.8545 10.0938L22.2151 6.61252C22.4632 6.35544 22.6 6.0132 22.6 5.64997C22.5999 5.28642 22.4632 4.94459 22.215 4.68752Z" fill="black"/>
<path d="M17.9186 4.84298C19.2076 4.84298 20.2558 3.75695 20.2558 2.42149C20.2558 1.08603 19.2076 0 17.9186 0C16.6296 0 15.5813 1.08603 15.5813 2.42149C15.5813 3.75695 16.6296 4.84298 17.9186 4.84298Z" fill="black"/>
</svg>
