<svg width="23" height="23" viewBox="0 0 23 23" fill="none" xmlns="http://www.w3.org/2000/svg">
<path d="M18.2658 17.9379C18.2658 17.9364 18.2658 17.9346 18.2641 17.933C18.2545 17.9126 18.2426 17.8934 18.2288 17.8756C18.0071 17.5432 17.7068 17.2707 17.3545 17.0824C17.0022 16.894 16.6088 16.7956 16.2093 16.7959C15.8098 16.7962 15.4166 16.8952 15.0646 17.0842C14.7126 17.2731 14.4127 17.546 14.1916 17.8788C14.1787 17.8957 14.1675 17.9138 14.1583 17.933V17.9344C13.9139 18.3199 13.7842 18.7669 13.7842 19.2233C13.7842 19.6797 13.9139 20.1267 14.1583 20.5122V20.5136C14.1674 20.533 14.1787 20.5513 14.1918 20.5682C14.4149 20.904 14.7183 21.1788 15.0744 21.3678C15.4305 21.5568 15.8282 21.6539 16.2313 21.6504C16.6345 21.6469 17.0304 21.5428 17.3832 21.3477C17.7359 21.1526 18.0345 20.8725 18.2517 20.5329C18.2558 20.526 18.2614 20.5205 18.2648 20.5133C18.2655 20.5117 18.2661 20.51 18.2665 20.5083C18.5098 20.1236 18.6389 19.6778 18.6389 19.2226C18.6389 18.7674 18.5098 18.3216 18.2665 17.9369L18.2658 17.9379ZM14.5711 19.9861C14.4589 19.7478 14.4008 19.4878 14.4008 19.2245C14.4008 18.9612 14.4589 18.7011 14.5711 18.4629C15.6213 18.8953 16.7999 18.8953 17.8502 18.4629C17.9623 18.701 18.0205 18.961 18.0205 19.2242C18.0205 19.4874 17.9623 19.7474 17.8502 19.9855C16.7992 19.5568 15.6221 19.5567 14.5711 19.9854V19.9861ZM17.4844 17.9411C16.6614 18.2421 15.7585 18.2421 14.9355 17.9411C15.274 17.604 15.7322 17.4147 16.2099 17.4147C16.6876 17.4147 17.1459 17.604 17.4844 17.9411ZM14.9362 20.5073C15.7591 20.2063 16.662 20.2063 17.4849 20.5073C17.1464 20.8444 16.6882 21.0336 16.2106 21.0336C15.7329 21.0336 15.2747 20.8444 14.9362 20.5073Z" fill="#131417"/>
<path d="M19.1469 13.241C19.16 13.2281 19.1741 13.2162 19.1872 13.2032C19.189 13.2014 19.1902 13.1991 19.1922 13.1973C22.2997 10.0844 22.6351 5.36009 19.9381 2.66275C18.6275 1.35142 16.8038 0.7112 14.8007 0.859689C12.7554 1.03712 10.8413 1.94107 9.40494 3.40784C9.40264 3.40996 9.39999 3.41137 9.39788 3.41367C9.38234 3.42903 9.36821 3.44598 9.35285 3.46151C9.24691 3.56863 9.14445 3.67792 9.04546 3.78939L9.0414 3.79416C8.15527 4.7758 7.50293 5.94534 7.13329 7.21506L7.13187 7.21876C6.5139 8.99234 6.25489 10.8289 6.02712 12.4491C5.85268 13.6907 5.69766 14.7869 5.41922 15.436C5.36473 15.4172 5.30605 15.414 5.24986 15.4269C5.19367 15.4398 5.14223 15.4682 5.1014 15.5089L0.929939 19.6805C0.901223 19.7092 0.878442 19.7433 0.862899 19.7808C0.847356 19.8183 0.839355 19.8585 0.839355 19.899C0.839355 19.9396 0.847356 19.9798 0.862899 20.0173C0.878442 20.0548 0.901223 20.0889 0.929939 20.1175L2.48369 21.6713C2.51237 21.7 2.54643 21.7228 2.58392 21.7383C2.62141 21.7539 2.6616 21.7619 2.70219 21.7619C2.74277 21.7619 2.78296 21.7539 2.82045 21.7383C2.85794 21.7228 2.892 21.7 2.92068 21.6713L6.17614 18.4157L7.09179 17.5C7.10632 17.4855 7.11934 17.4695 7.13064 17.4523C7.13727 17.4413 7.14317 17.4299 7.14829 17.4181C7.15147 17.4117 7.15553 17.4057 7.15818 17.3992C7.16323 17.386 7.16736 17.3725 7.17054 17.3588C7.17213 17.3529 7.17442 17.3473 7.17566 17.3411C7.17954 17.3217 7.18149 17.3019 7.18149 17.2821V17.2812C7.18143 17.2611 7.17942 17.241 7.17548 17.2212C7.17442 17.2156 7.17195 17.2103 7.17054 17.2046C7.16913 17.199 7.16648 17.1896 7.16383 17.1822C7.81305 16.9037 8.90933 16.7487 10.1507 16.5743C11.7711 16.3465 13.6073 16.0882 15.3805 15.4697L15.3846 15.4683C16.6552 15.0982 17.8255 14.4451 18.8076 13.5581C18.9238 13.4551 19.0366 13.3501 19.1469 13.241ZM14.8466 1.47607C15.0207 1.463 15.1932 1.45653 15.3641 1.45665C16.1283 1.44184 16.8877 1.57952 17.5981 1.86164C18.3084 2.14376 18.9554 2.56466 19.5011 3.09974C21.9589 5.55766 21.622 9.89369 18.75 12.7657C18.7375 12.7782 18.7244 12.7898 18.7117 12.8024C17.8125 13.6889 16.6601 14.3701 15.1889 14.8821C14.7155 15.0166 14.2296 15.1032 13.7388 15.1406C11.9202 15.2758 10.2666 14.6992 9.08412 13.5162C7.90169 12.3333 7.32503 10.681 7.45975 8.86168C7.49719 8.37101 7.58372 7.88533 7.71806 7.41192C8.22886 5.94451 8.90809 4.79421 9.79126 3.89586C9.80609 3.88085 9.81986 3.86531 9.83469 3.85048C11.1675 2.48489 12.9457 1.64244 14.8466 1.47607ZM5.31999 16.1643L6.43675 17.2811L5.95809 17.7597L4.84133 16.643L5.31999 16.1643ZM2.70157 21.0157L1.58534 19.8988L4.40434 17.08L5.52109 18.1967L2.70157 21.0157ZM10.066 15.9614C8.62118 16.1647 7.4511 16.3301 6.73302 16.703L5.89735 15.868C6.2699 15.15 6.43533 13.9801 6.63891 12.5351C6.72525 11.921 6.81653 11.2751 6.92989 10.6149C7.14017 11.8802 7.74099 13.0479 8.64817 13.9545C9.55534 14.8612 10.7234 15.4613 11.9888 15.6708C11.3274 15.7849 10.6806 15.8756 10.066 15.9614Z" fill="#131417"/>
<path d="M8.74407 6.04941C8.34734 6.78513 8.08007 7.58358 7.95396 8.40988C7.94403 8.44087 7.93903 8.47322 7.93912 8.50575C7.91158 8.71151 7.89392 8.91649 7.88616 9.12072C7.88078 9.15133 7.88006 9.18259 7.88404 9.21341C7.85895 9.99941 7.99499 10.7822 8.28377 11.5137C8.28777 11.5247 8.29237 11.5355 8.29755 11.546C8.54939 12.165 8.92187 12.7277 9.39329 13.2014C9.39435 13.2025 9.39523 13.2041 9.39647 13.2053C9.39771 13.2066 9.39912 13.2073 9.40036 13.2085C9.90478 13.7026 10.5026 14.0913 11.159 14.3517C11.8153 14.6122 12.5169 14.7393 13.2229 14.7255C13.2876 14.7255 13.3531 14.7232 13.4184 14.7211H13.4226H13.4297C13.5485 14.7172 13.6679 14.7112 13.7885 14.7008C13.9091 14.6904 14.0311 14.6754 14.1518 14.6581L14.1633 14.6563C15.7879 14.4018 17.2869 13.6295 18.4372 12.4544C19.613 11.3038 20.3857 9.80421 20.6403 8.17893C20.6403 8.17523 20.6414 8.17152 20.6421 8.16781C20.6597 8.04687 20.674 7.92557 20.6846 7.80409C20.6952 7.68262 20.7023 7.56026 20.7055 7.43949V7.4379C20.7546 5.8665 20.2242 4.44817 19.1904 3.41369L19.1893 3.4121L19.1881 3.41122C18.0738 2.29728 16.5146 1.76583 14.7972 1.91609C13.0318 2.09678 11.386 2.89216 10.1476 4.1632C9.60626 4.70347 9.14489 5.31829 8.77744 5.98903C8.76402 6.0078 8.75282 6.02806 8.74407 6.04941ZM10.3706 4.82319L11.2393 5.69187L10.1172 6.81428L9.41519 6.1128C9.68604 5.64962 10.0064 5.21722 10.3706 4.82319ZM12.0958 3.42976L12.7987 4.13247L11.6761 5.25488L10.8074 4.3862C11.2012 4.02198 11.6332 3.70131 12.0958 3.42976ZM15.3611 2.50934C15.8588 2.50753 16.3542 2.5774 16.832 2.7168L16.1027 3.44459L15.2312 2.57307L15.2935 2.51075C15.3161 2.51057 15.3385 2.50934 15.3611 2.50934ZM18.5262 3.63934L17.4124 4.75327L16.5409 3.88176L17.4677 2.95516C17.8509 3.13184 18.2071 3.36215 18.5255 3.63916L18.5262 3.63934ZM19.6473 5.13517L18.7209 6.0616L17.8494 5.19008L18.9632 4.07633C19.2401 4.395 19.4702 4.75146 19.6466 5.135L19.6473 5.13517ZM19.4729 9.93255L18.9068 9.36632L20.0006 8.27163C19.8989 8.8462 19.7212 9.40468 19.4722 9.93238L19.4729 9.93255ZM18.2149 11.7946L17.3467 10.9264L18.4691 9.80402L19.1713 10.5057C18.8998 10.9685 18.5792 11.4006 18.2149 11.7946ZM16.4895 13.1878L15.7873 12.4856L16.9097 11.3634L17.7779 12.2316C17.3841 12.5955 16.9521 12.9158 16.4895 13.187V13.1878ZM11.7559 13.9004L12.4831 13.1728L13.3546 14.0443L13.2937 14.1051C12.7737 14.1137 12.2554 14.0445 11.7559 13.8996V13.9004ZM10.0609 12.979L11.1746 11.8652L12.046 12.7367L11.1199 13.663C10.736 13.486 10.3793 13.2552 10.0605 12.9776L10.0609 12.979ZM8.94076 11.4822L9.86613 10.5569L10.7376 11.4284L9.62282 12.5413C9.34599 12.2223 9.11619 11.8654 8.94041 11.4814L8.94076 11.4822ZM14.7302 8.30959L15.8523 7.1863L16.7238 8.05781L15.6014 9.18022L14.7302 8.30959ZM15.1648 9.6181L14.0424 10.7405L13.1708 9.86899L14.2933 8.74658L15.1648 9.6181ZM14.2929 7.87172L13.4214 7.00038L14.544 5.8778L15.4153 6.74931L14.2929 7.87172ZM13.8561 8.30871L12.7337 9.43112L11.8622 8.5596L12.9846 7.43719L13.8561 8.30871ZM12.2967 9.86811L11.1743 10.9905L10.3028 10.119L11.4252 8.9966L12.2967 9.86811ZM12.7337 10.3049L13.6052 11.1766L12.4831 12.2988L11.6113 11.4273L12.7337 10.3049ZM14.042 11.6134L14.9135 12.4848L13.7911 13.6073L12.9196 12.7358L14.042 11.6134ZM14.4783 11.1766L15.6007 10.0542L16.4734 10.9255L15.3505 12.0479L14.4783 11.1766ZM16.0375 9.61739L17.1601 8.4948L18.0314 9.36632L16.9097 10.488L16.0375 9.61739ZM17.5969 8.05799L18.7193 6.93558L19.5908 7.80692L18.4686 8.92915L17.5969 8.05799ZM17.1601 7.621L16.2886 6.74948L17.4108 5.62708L18.2832 6.49771L17.1601 7.621ZM15.8523 6.31232L14.9808 5.44098L16.1027 4.31857L16.9742 5.19008L15.8523 6.31232ZM14.544 5.00399L13.6725 4.13177L14.7947 3.00936L15.6664 3.88087L14.544 5.00399ZM14.1075 5.44098L12.9846 6.56339L12.1124 5.69187L13.2348 4.56947L14.1075 5.44098ZM12.5481 7.00038L11.4252 8.12208L10.5537 7.25057L11.6761 6.12816L12.5481 7.00038ZM10.9887 8.5596L9.8663 9.68201L8.99426 8.81068L10.1172 7.68827L10.9887 8.5596ZM8.49724 9.3077L8.55727 9.24767L9.42861 10.119L8.7047 10.8441C8.55974 10.3451 8.48982 9.8273 8.49724 9.3077ZM14.2567 14.0156L15.3505 12.9209L15.9166 13.4869C15.3892 13.736 14.831 13.9138 14.2567 14.0156ZM20.0896 7.30866L20.0285 7.36975L19.1572 6.49771L19.8845 5.77045C20.0292 6.27009 20.0983 6.78856 20.0896 7.30866ZM14.3302 2.60097L13.2355 3.69566L12.6689 3.12889C13.1968 2.88 13.7554 2.70247 14.3302 2.60097ZM9.67985 7.25128L8.58764 8.34349C8.68992 7.77039 8.86724 7.21325 9.11503 6.68645L9.67985 7.25128Z" fill="#131417"/>
</svg>
