<svg width="30" height="29" viewBox="0 0 30 29" fill="none" xmlns="http://www.w3.org/2000/svg">
<g clip-path="url(#clip0)">
<path d="M9.38415 26.1166C20.2563 26.1166 26.2045 17.1069 26.2045 9.2962C26.2045 9.04292 26.1989 8.784 26.1876 8.53072C27.3447 7.69391 28.3433 6.65741 29.1364 5.46991C28.0588 5.94938 26.9146 6.26251 25.743 6.39862C26.9766 5.65916 27.9003 4.49751 28.3428 3.129C27.1822 3.81678 25.9131 4.30195 24.5897 4.56371C23.698 3.61626 22.519 2.98893 21.2351 2.77872C19.9511 2.56851 18.6336 2.78712 17.4864 3.40076C16.3391 4.01441 15.4259 4.9889 14.888 6.17357C14.3502 7.35825 14.2175 8.68712 14.5106 9.95474C12.1607 9.83682 9.86178 9.22637 7.76291 8.16297C5.66404 7.09957 3.81207 5.60696 2.32707 3.78191C1.57231 5.0832 1.34135 6.62306 1.68113 8.08852C2.02092 9.55398 2.90595 10.8351 4.15635 11.6714C3.21762 11.6416 2.29946 11.3889 1.47772 10.9341V11.0073C1.47688 12.3729 1.94898 13.6966 2.81378 14.7535C3.67858 15.8104 4.88271 16.5352 6.22146 16.8047C5.35188 17.0426 4.43922 17.0773 3.55409 16.906C3.93186 18.0804 4.66687 19.1076 5.65653 19.8442C6.64619 20.5808 7.84113 20.9901 9.07458 21.0148C6.98055 22.6597 4.39382 23.5519 1.731 23.5477C1.25878 23.547 0.787012 23.518 0.318237 23.461C3.02337 25.1965 6.17017 26.1182 9.38415 26.1166Z" fill="white"/>
</g>
<defs>
<clipPath id="clip0">
<rect width="28.8182" height="28.8182" fill="white" transform="translate(0.318237)"/>
</clipPath>
</defs>
</svg>
