<svg width="30" height="29" viewBox="0 0 30 29" fill="none" xmlns="http://www.w3.org/2000/svg">
<g clip-path="url(#clip0)">
<path d="M29.4857 8.6456C29.4857 8.6456 29.2043 6.65872 28.3375 5.7863C27.2399 4.63807 26.0129 4.63244 25.45 4.5649C21.42 4.27222 15.3693 4.27222 15.3693 4.27222H15.3581C15.3581 4.27222 9.30736 4.27222 5.27732 4.5649C4.71446 4.63244 3.48744 4.63807 2.38987 5.7863C1.52307 6.65872 1.24727 8.6456 1.24727 8.6456C1.24727 8.6456 0.95459 10.9815 0.95459 13.3117V15.4955C0.95459 17.8258 1.24165 20.1616 1.24165 20.1616C1.24165 20.1616 1.52307 22.1485 2.38424 23.0209C3.48181 24.1691 4.92272 24.1297 5.56437 24.2536C7.87208 24.4731 15.3637 24.5406 15.3637 24.5406C15.3637 24.5406 21.42 24.5294 25.45 24.2423C26.0129 24.1748 27.2399 24.1691 28.3375 23.0209C29.2043 22.1485 29.4857 20.1616 29.4857 20.1616C29.4857 20.1616 29.7728 17.8314 29.7728 15.4955V13.3117C29.7728 10.9815 29.4857 8.6456 29.4857 8.6456ZM12.3862 18.1466V10.0471L20.1705 14.1109L12.3862 18.1466Z" fill="white"/>
</g>
<defs>
<clipPath id="clip0">
<rect width="28.8182" height="28.8182" fill="white" transform="translate(0.95459)"/>
</clipPath>
</defs>
</svg>
